<?xml version="1.0" encoding="UTF-8"?>
<svg width="17px" height="156px" viewBox="0 0 17 156" version="1.1" xmlns="http://www.w3.org/2000/svg" xmlns:xlink="http://www.w3.org/1999/xlink">
    <!-- Generator: Sketch 48.1 (47250) - http://www.bohemiancoding.com/sketch -->
    <title>Page 1</title>
    <desc>Created with Sketch.</desc>
    <defs>
        <polygon id="path-1" points="0 17 155.919566 17 155.919566 0.109314904 0 0.109314904"></polygon>
        <path d="M5.37226404,0.108640625 C4.91940887,0.108640625 4.50024828,0.350706731 4.2731468,0.743137019 L0.16982069,7.91072115 C-0.05391133,8.30045433 -0.05391133,8.78054087 0.16982069,9.1716226 L4.2731468,16.3317897 C4.50024828,16.7248942 4.91940887,16.9669603 5.37226404,16.9662861 L13.580264,16.9662861 C14.0331192,16.9669603 14.4516059,16.7248942 14.6787074,16.3317897 L18.7827074,9.1716226 C19.0064394,8.78054087 19.0064394,8.30045433 18.7827074,7.91072115 L16.2151803,3.48070913 L14.6787074,0.743137019 C14.4516059,0.350706731 14.0331192,0.108640625 13.580264,0.108640625 L5.37226404,0.108640625 Z" id="path-3"></path>
    </defs>
    <g id="Desktop-HD" stroke="none" stroke-width="1" fill="none" fill-rule="evenodd" transform="translate(-1178.000000, -233.000000)" opacity="0.485450634">
        <g id="Page-1" transform="translate(1186.000000, 311.000000) rotate(-270.000000) translate(-1186.000000, -311.000000) translate(1108.000000, 302.000000)">
            <g id="Group-40">
                <path d="M24.200664,8.27456202 C24.2453902,5.20119904 26.7703869,2.73738413 29.8592048,2.75221827 C31.2829885,2.72996707 32.655947,3.27883005 33.6677076,4.27608846 L32.569883,5.33470625 C31.8427435,4.63682764 30.8696101,4.24979159 29.8592048,4.2558601 C27.6588117,4.2558601 25.8745078,6.02988774 25.8738301,8.21994543 C25.8738301,8.24691659 25.8738301,8.27456202 25.8745078,8.30153317 C25.8297816,10.4909166 27.5768137,12.3013553 29.7772067,12.346532 C29.8043135,12.3472062 29.832098,12.3478805 29.8592048,12.3478805 C30.9095926,12.3903601 31.9288076,11.9884899 32.6647567,11.2413889 C33.1479351,10.7188228 33.439333,10.0479154 33.4915136,9.34059688 L29.8592048,9.34059688 L29.8592048,7.77559567 L34.9417264,7.77559567 C34.9993283,8.0871125 35.0264351,8.40334928 35.0230468,8.71958606 C35.0657399,10.0229671 34.5940819,11.2912856 33.7083678,12.2528072 C32.7060946,13.2925452 31.3060293,13.8569166 29.8592048,13.8036486 C26.7676763,13.8184827 24.2420018,11.3506221 24.200664,8.27456202" id="Fill-1" fill="#737373"></path>
                <path d="M39.1501221,12.3943383 C38.0089266,12.3774814 37.097461,11.4429309 37.1150804,10.306771 C37.1150804,10.2838456 37.1164358,10.2602458 37.1171134,10.236646 C37.1171134,9.12004026 38.0272236,8.2138095 39.1501221,8.2138095 C40.2730205,8.2138095 41.1831308,9.12004026 41.1831308,10.236646 C41.2427657,11.3707831 40.3678943,12.3390475 39.2280541,12.3990583 C39.2023027,12.4004069 39.1758735,12.4010811 39.1501221,12.4017554 L39.1501221,12.3943383 Z M39.1501221,6.68319651 C37.1740377,6.68724219 35.5754152,8.2839345 35.5788036,10.2501316 C35.5821919,12.2163287 37.1875911,13.8076268 39.1636755,13.8035811 C41.1370492,13.8002097 42.734994,12.2075631 42.734994,10.2440631 C42.7648115,8.30753425 41.2122705,6.71353906 39.2660036,6.68319651 C39.2273764,6.68252224 39.1887493,6.68252224 39.1501221,6.68319651 Z" id="Fill-3" fill="#737373"></path>
                <path d="M46.9840499,12.3943383 C45.8428544,12.3774814 44.9313888,11.4429309 44.9490082,10.306771 C44.9490082,10.2838456 44.9496859,10.2602458 44.9510412,10.236646 C44.9510412,9.12004026 45.8611514,8.2138095 46.9840499,8.2138095 C48.1069483,8.2138095 49.0170585,9.12004026 49.0170585,10.236646 C49.0766935,11.3707831 48.2018221,12.3390475 47.0619819,12.3990583 C47.0355528,12.4004069 47.0098013,12.4010811 46.9840499,12.4017554 L46.9840499,12.3943383 Z M46.9840499,6.68319651 C45.0079655,6.69128786 43.4120537,8.29067728 43.419508,10.2568744 C43.4269624,12.2230715 45.0350723,13.8116725 47.0111567,13.8035811 C48.9818197,13.7961641 50.5756985,12.204866 50.5756985,10.2440631 C50.6061937,8.30753425 49.052975,6.71353906 47.1073858,6.68319651 C47.0660479,6.68252224 47.0253877,6.68252224 46.9840499,6.68319651 Z" id="Fill-5" fill="#737373"></path>
                <path d="M54.7908031,12.4016206 C53.6679047,12.3813922 52.7747362,11.4589787 52.7950663,10.3416987 C52.795744,10.313379 52.7970993,10.2850593 52.7984547,10.2567395 C52.734076,9.1232768 53.6055591,8.15164099 54.7453993,8.08825877 C54.7609857,8.08691022 54.7758944,8.08623594 54.7908031,8.08623594 C55.9116686,8.14961815 56.7682429,9.10574555 56.7038643,10.221677 C56.7031866,10.2331398 56.7025089,10.2452768 56.7018313,10.2567395 C56.7709536,11.372671 55.9191229,12.3314956 54.7982575,12.4009463 C54.7955468,12.4009463 54.7928361,12.4009463 54.7908031,12.4016206 Z M56.5934041,6.89883089 L56.5934041,7.47938498 L56.5391906,7.47938498 C56.0553345,6.95614459 55.3695329,6.66687897 54.6552692,6.68373594 C52.6812178,6.76869507 51.1503623,8.43079243 51.2364263,10.3949667 C51.317069,12.2397936 52.8011653,13.7164643 54.6552692,13.7967035 C55.3722436,13.8162576 56.0614335,13.5202492 56.5391906,12.9875689 L56.5934041,12.9875689 L56.5934041,13.5006951 C56.5934041,14.8492528 55.861521,15.5902852 54.682376,15.5902852 C53.8874696,15.5646626 53.185404,15.0683934 52.9001051,14.3293838 L51.544766,14.895778 C52.0672492,16.1789306 53.3250039,17.0130136 54.7162595,16.999528 C56.5595207,16.999528 58.1046073,15.9213561 58.1046073,13.2909944 L58.1046073,6.89883089 L56.6137342,6.89883089 L56.5934041,6.89883089 Z" id="Fill-7" fill="#737373"></path>
                <mask id="mask-2" fill="white">
                    <use xlink:href="#path-1"></use>
                </mask>
                <g id="Clip-10"></g>
                <polygon id="Fill-9" fill="#737373" mask="url(#mask-2)" points="59.168684 13.588149 60.7408773 13.588149 60.7408773 3.13008413 59.168684 3.13008413"></polygon>
                <path d="M64.9220985,8.05892764 C65.4879526,8.0029625 66.0294105,8.30436514 66.2774376,8.81411995 L63.0788373,10.1626776 C62.9907403,9.0899 63.7937787,8.14928101 64.8719509,8.06229904 C64.888215,8.06095048 64.9051567,8.05960192 64.9220985,8.05892764 M65.044079,12.4012834 C64.2979648,12.4302774 63.6094526,12.0027846 63.3092449,11.3224373 L68.093592,9.35354303 L67.9309513,8.94897572 C67.4918214,7.6267149 66.2665949,6.72115841 64.8678849,6.6833988 C62.9961616,6.68070168 61.4768265,8.1877149 61.4741158,10.0493988 C61.4741158,10.1141296 61.4761488,10.1795346 61.4795372,10.2435911 C61.4341333,12.1646115 62.9629558,13.7579325 64.8936364,13.8037834 C64.9390402,13.8044577 64.9844441,13.8044577 65.0305256,13.8037834 C66.2279677,13.8105262 67.3488332,13.2171608 68.0122716,12.2259709 L66.7924665,11.416162 C66.4244919,12.0290815 65.7603757,12.4019577 65.044079,12.4012834" id="Fill-11" fill="#737373" mask="url(#mask-2)"></path>
                <path d="M71.1971152,8.76024507 C71.1327366,6.03885565 73.2985685,3.78069579 76.0336428,3.71731358 C76.1020875,3.71596502 76.1705321,3.71529075 76.2389767,3.7166393 C77.6038032,3.68899387 78.9103501,4.26685084 79.8035186,5.2944518 L78.9361015,6.13055757 C78.2821504,5.31333161 77.2744558,4.85684483 76.2254233,4.90337007 C74.1863156,4.85954195 72.4975631,6.46971983 72.4535146,8.49862488 C72.4521593,8.58560685 72.4535146,8.6732631 72.4575806,8.76024507 C72.3749049,10.7884758 73.959974,12.498447 75.998404,12.580709 C76.0695593,12.5840804 76.1407146,12.5847547 76.2118699,12.5834061 C77.3557761,12.5881261 78.4447911,12.0952282 79.193616,11.2348484 L80.061033,12.0979254 C78.2048961,14.1834698 75.0015521,14.3769879 72.9055202,12.5301381 C71.8205712,11.574685 71.1984706,10.2025275 71.1971152,8.76024507" id="Fill-12" fill="#737373" mask="url(#mask-2)"></path>
                <polygon id="Fill-13" fill="#737373" mask="url(#mask-2)" points="81.0364028 13.588149 82.2839924 13.588149 82.2839924 3.93247596 81.0364028 3.93247596"></polygon>
                <path d="M88.796058,10.283913 C88.8909317,9.09246226 87.9964079,8.05002716 86.7996435,7.95562812 C85.6015237,7.86122909 84.5538466,8.75127716 84.4596505,9.94272788 C84.4501631,10.0560067 84.4501631,10.1706341 84.4596505,10.283913 C84.4596505,11.4807579 85.434817,12.4517195 86.6376805,12.4517195 C87.8412216,12.4517195 88.8163881,11.4807579 88.8163881,10.283913 L88.796058,10.283913 Z M90.04297,10.283913 C90.04297,12.1590825 88.5155028,13.678907 86.6315814,13.678907 C84.7463047,13.678907 83.2195152,12.1590825 83.2195152,10.283913 C83.2195152,8.40874351 84.7463047,6.88891899 86.6315814,6.88891899 C88.5155028,6.88891899 90.04297,8.40874351 90.04297,10.283913 Z" id="Fill-14" fill="#737373" mask="url(#mask-2)"></path>
                <path d="M95.674675,13.588149 L95.674675,12.6711298 L95.5933547,12.6711298 C95.127118,13.3744026 94.3389883,13.798524 93.4925791,13.803244 C91.7848518,13.803244 90.9580949,12.6576442 90.9580949,11.0258894 L90.9580949,6.98021635 L92.2050069,6.98021635 L92.2050069,10.8229315 C92.2050069,12.1714892 92.8826765,12.6711298 93.8449672,12.6711298 C94.883157,12.5814507 95.6597663,11.6833113 95.5933547,10.6482933 L95.5933547,7.0071875 L96.8402666,7.0071875 L96.8402666,13.6077031 L95.6475682,13.6077031 L95.674675,13.588149 Z" id="Fill-15" fill="#737373" mask="url(#mask-2)"></path>
                <path d="M103.346098,10.283913 C103.478243,9.12213053 102.638611,8.07362692 101.470986,7.94146827 C100.304039,7.80998389 99.2495852,8.64474111 99.1174396,9.80719784 C99.0991426,9.96497909 99.0991426,10.1254575 99.1174396,10.283913 C98.9846164,11.4463697 99.824249,12.494199 100.991196,12.6263577 C102.159498,12.7578421 103.213274,11.9230849 103.346098,10.7613024 C103.363717,10.6028469 103.363717,10.4423685 103.346098,10.283913 M97.8705277,10.283913 C97.7844636,8.45594303 99.1804629,6.89431322 101.014914,6.7641774 C101.913504,6.73653197 102.765335,7.1626762 103.277653,7.89696587 L103.331867,7.89696587 L103.277653,6.97994663 L103.277653,3.93220625 L104.524565,3.93220625 L104.524565,13.5878793 L103.331867,13.5878793 L103.331867,12.6708601 L103.277653,12.6708601 C102.765335,13.4051498 101.913504,13.8319683 101.014914,13.8036486 C99.1804629,13.6735127 97.7844636,12.1118829 97.8705277,10.283913" id="Fill-16" fill="#737373" mask="url(#mask-2)"></path>
                <path d="M111.267648,8.49060096 C112.20351,8.49060096 112.961822,7.73540865 112.961822,6.80490385 C112.961822,5.87372476 112.20351,5.11920673 111.267648,5.11920673 L109.146542,5.11920673 L109.146542,8.49060096 L111.233765,8.49060096 L111.267648,8.49060096 Z M107.933514,13.588149 L107.933514,3.93247596 L111.240541,3.93247596 C112.86356,3.87988221 114.222287,5.14685216 114.275146,6.76242428 C114.275823,6.77658413 114.275823,6.79074399 114.276501,6.80490385 C114.247361,8.42047596 112.907608,9.707 111.283235,9.67800601 C111.269003,9.67800601 111.254772,9.67733173 111.240541,9.67733173 L109.207533,9.67733173 L109.207533,13.588149 L107.960621,13.588149 L107.933514,13.588149 Z" id="Fill-17" fill="#737373" mask="url(#mask-2)"></path>
                <polygon id="Fill-18" fill="#737373" mask="url(#mask-2)" points="115.150966 13.588149 116.397878 13.588149 116.397878 3.93247596 115.150966 3.93247596"></polygon>
                <path d="M122.212282,10.7422203 C121.74469,10.4327263 121.187646,10.2810136 120.626536,10.3106819 C119.311857,10.3106819 118.796828,10.9849607 118.796828,11.6194571 C118.888313,12.276879 119.488051,12.7428056 120.152167,12.6706578 C121.238471,12.6720064 122.13435,11.8230893 122.185176,10.7422203 L122.212282,10.7422203 Z M117.468596,11.5924859 C117.468596,10.0949126 118.823935,9.28645228 120.382575,9.28645228 C121.007386,9.27161815 121.626776,9.41051959 122.185176,9.69034531 L122.185176,9.50154724 C122.124863,8.53935132 121.29133,7.80775877 120.324295,7.86776959 C119.700161,7.90620349 119.144472,8.27166262 118.864595,8.82794267 L117.72611,8.34178762 C118.487811,6.88062536 120.295833,6.31085974 121.764343,7.06874916 C122.719179,7.56232127 123.334503,8.52654002 123.377874,9.59662055 L123.377874,13.5883513 L122.185176,13.5883513 L122.185176,12.6706578 L122.130962,12.6706578 C121.653883,13.4029246 120.825093,13.8331145 119.948866,13.8034463 C118.699921,13.9194222 117.594642,13.0057744 117.478083,11.764427 C117.472662,11.7071133 117.469273,11.6497996 117.468596,11.5924859 Z" id="Fill-19" fill="#737373" mask="url(#mask-2)"></path>
                <path d="M125.173766,11.5784609 L125.173766,8.11266767 L124.007497,8.11266767 L124.007497,6.97987921 L125.173766,6.97987921 L125.173766,4.95704267 L126.420678,4.95704267 L126.420678,6.97987921 L128.046407,6.97987921 L128.046407,8.11266767 L126.420678,8.11266767 L126.420678,11.4840619 C126.420678,12.2257686 126.732406,12.5629081 127.314524,12.5629081 C127.510371,12.572348 127.70554,12.5345883 127.884444,12.4550234 L128.318153,13.520384 C127.999648,13.6491713 127.658103,13.7085078 127.314524,13.6963708 C126.26007,13.8217867 125.301168,13.0726629 125.175122,12.0221364 C125.157502,11.8744694 125.156824,11.726128 125.173766,11.5784609" id="Fill-20" fill="#737373" mask="url(#mask-2)"></path>
                <path d="M133.278694,4.05377873 L132.865316,5.1191393 C132.687089,5.03822584 132.49192,5.0011405 132.296073,5.01125469 C131.724798,4.96742656 131.226711,5.39222224 131.181984,5.9606393 C131.177241,6.0213244 131.177918,6.08268377 131.184017,6.14404315 L131.184017,6.98014892 L132.865316,6.98014892 L132.865316,8.11293738 L131.130482,8.11293738 L131.130482,13.5880816 L129.882892,13.5880816 L129.882892,8.11293738 L128.63598,8.11293738 L128.63598,6.98014892 L129.882892,6.98014892 L129.882892,6.10358642 C129.84562,4.9087643 130.787581,3.90948305 131.989089,3.87172344 C132.07312,3.86902632 132.157829,3.87104916 132.24186,3.87846623 C132.595603,3.8602607 132.950024,3.92027151 133.278694,4.05377873" id="Fill-21" fill="#737373" mask="url(#mask-2)"></path>
                <path d="M138.815187,10.283913 C138.91006,9.09246226 138.015536,8.05002716 136.818094,7.95562812 C135.620652,7.86122909 134.572297,8.75127716 134.478101,9.94272788 C134.468614,10.0560067 134.468614,10.1706341 134.478101,10.283913 C134.383228,11.476038 135.277074,12.5177988 136.475194,12.6121978 C137.671958,12.7065969 138.720313,11.8165488 138.815187,10.6257724 C138.823996,10.5118192 138.823996,10.3978661 138.815187,10.283913 M140.062098,10.283913 C140.062098,12.1590825 138.534631,13.678907 136.650032,13.678907 C134.765433,13.678907 133.237966,12.1590825 133.237966,10.283913 C133.237966,8.40874351 134.765433,6.88891899 136.650032,6.88891899 C138.534631,6.88891899 140.062098,8.40874351 140.062098,10.283913" id="Fill-22" fill="#737373" mask="url(#mask-2)"></path>
                <path d="M141.064575,13.588149 L141.064575,6.98021635 L142.257951,6.98021635 L142.257951,8.0590625 L142.312165,8.0590625 C142.666586,7.31735577 143.411345,6.83726923 144.236746,6.81838942 C144.555929,6.80557813 144.874433,6.86086899 145.17193,6.98021635 L144.696884,8.13997596 C144.478674,8.06715385 144.248944,8.03478846 144.019214,8.04557692 C143.025073,8.08738221 142.25253,8.92348798 142.294545,9.91332933 C142.295223,9.93355769 142.296578,9.95311178 142.297934,9.97401442 L142.297934,13.588149 L141.064575,13.588149 Z" id="Fill-23" fill="#737373" mask="url(#mask-2)"></path>
                <path d="M145.842688,6.98001406 L147.035386,6.98001406 L147.035386,7.89703329 L147.096376,7.89703329 C147.55177,7.21736022 148.308049,6.79593594 149.129385,6.76424483 C150.030685,6.69277127 150.877095,7.20387464 151.229483,8.03188906 C151.728925,7.23758858 152.60583,6.75750204 153.547113,6.76424483 C155.174197,6.76424483 155.918956,7.91051887 155.918956,9.54227368 L155.918956,13.5879468 L154.672044,13.5879468 L154.672044,9.73107175 C154.672044,8.38251406 154.14414,7.89703329 153.195402,7.89703329 C152.245987,7.89703329 151.501228,8.92193714 151.501228,9.91986983 L151.501228,13.5744612 L150.254316,13.5744612 L150.254316,9.73107175 C150.254316,8.38251406 149.725056,7.89703329 148.776997,7.89703329 C147.828259,7.89703329 147.082823,8.92193714 147.082823,9.91986983 L147.082823,13.5744612 L145.835233,13.5744612 L145.835233,6.98001406 L145.842688,6.98001406 Z" id="Fill-24" fill="#737373" mask="url(#mask-2)"></path>
                <path d="M12.4566506,13.594757 L10.5049623,16.9661512 L5.40211061,16.9661512 C4.94671667,16.9668255 4.5252062,16.7254337 4.29750924,16.3323291 L0.170501659,9.16474495 C-0.054484632,8.7743375 -0.054484632,8.29425096 0.170501659,7.90384351 L1.73591833,5.16627139 L3.67405325,8.53766562 L6.60158571,13.594757 L12.449874,13.594757 L12.4566506,13.594757 Z" id="Fill-25" fill="#FFCC40" mask="url(#mask-2)"></path>
                <path d="M18.8878702,9.16487981 L14.7608627,16.3317897 C14.5331657,16.7248942 14.1116552,16.9669603 13.6562613,16.9662861 L10.5050979,16.9662875 L12.4567862,13.5948918 L15.377542,8.53780048 L12.4567862,3.48070913 L16.3059492,3.48070913 L18.8607635,7.91072115 C19.0918488,8.29438582 19.1020138,8.77110096 18.8878702,9.16487981" id="Fill-26" fill="#DA4437" mask="url(#mask-2)"></path>
                <path d="M16.3058815,3.48057428 L6.60165348,3.48057428 L3.68089771,8.53766563 L1.73598609,5.16627139 L4.297577,0.743002163 C4.52527397,0.350571875 4.94678443,0.109180048 5.40217837,0.109180048 L13.6561935,0.109180048 C14.1115875,0.109180048 14.5330979,0.350571875 14.7607949,0.743002163 L16.3058815,3.48057428 Z" id="Fill-27" fill="#4284F3" mask="url(#mask-2)"></path>
                <polygon id="Fill-28" fill="#DFDFDF" mask="url(#mask-2)" points="12.4566506 3.48057428 15.3774064 8.53766562 12.449874 13.594757 6.60158571 13.594757 3.68082994 8.53766562 6.60836241 3.48057428"></polygon>
                <path d="M9.52918595,6.00911995 C10.9326396,6.00911995 12.0704468,7.14123413 12.0704468,8.53766563 C12.0704468,9.93409712 10.9326396,11.0662113 9.52918595,11.0662113 C8.12573231,11.0662113 6.98792513,9.93409712 6.98792513,8.53766563 C6.98792513,7.14123413 8.12573231,6.00911995 9.52918595,6.00911995" id="Fill-29" fill="#FFFFFF" mask="url(#mask-2)"></path>
                <path d="M4.29744147,0.850954207 C4.52513844,0.457849639 4.9466489,0.216457812 5.40204284,0.217132091 L13.656058,0.217132091 C14.1114519,0.216457812 14.5329624,0.457849639 14.7606594,0.850954207 L16.3057459,3.48064171 L14.7606594,0.743069591 C14.5329624,0.350639303 14.1114519,0.108573197 13.656058,0.109247476 L5.40204284,0.109247476 C4.9466489,0.108573197 4.52513844,0.350639303 4.29744147,0.743069591 L1.73585056,5.16633882 L1.73585056,5.22028113 L4.29744147,0.850954207 Z" id="Fill-30" fill="#FFFFFF" mask="url(#mask-2)"></path>
                <polyline id="Fill-31" fill="#1A237E" mask="url(#mask-2)" points="3.68103324 8.53766562 6.60178902 3.48057428 16.3399005 3.48057428 16.2789102 3.37268966 6.60178902 3.37268966 3.68103324 8.42978101"></polyline>
                <path d="M0.170569426,8.01186298 L1.74276279,5.3147476 L3.68089771,8.68614183 L6.60843018,13.7432332 L12.3957282,13.7432332 L12.4567184,13.6346743 L6.60165348,13.6346743 L3.68089771,8.53780048 L1.73598609,5.16640625 L0.163792731,7.86352163 C0.0472335678,8.0685024 -0.00901300505,8.30247716 0.00115203824,8.53780048 C0.0180937771,8.35169952 0.075695689,8.17234135 0.170569426,8.01186298" id="Fill-32" fill="#FFFFFF" mask="url(#mask-2)"></path>
                <path d="M10.5658848,16.8581317 L5.40204284,16.8581317 C4.9466489,16.858806 4.52513844,16.6174142 4.29744147,16.2249839 L0.170433892,9.06346827 C0.0714941378,8.88815577 0.0159252345,8.69194062 0.00779319986,8.49033125 C-0.00237184343,8.72565457 0.0538747294,8.95962933 0.170433892,9.1646101 L4.29744147,16.3321942 C4.52513844,16.7252988 4.9466489,16.9666906 5.40204284,16.9660163 L10.5048946,16.9660163 L10.5658848,16.8581317 Z" id="Fill-33" fill="#BE360C" mask="url(#mask-2)"></path>
                <g id="Group-36" mask="url(#mask-2)" fill="#3E2723">
                    <g transform="translate(10.165043, 3.371394)">
                        <polygon id="Fill-34" points="5.27362446 5.16627139 2.35286869 0.109180048 2.29187843 0.109180048 5.2126342 5.16627139"></polygon>
                        <path d="M8.72282695,5.69207404 L4.59581937,12.8535897 C4.3681224,13.24602 3.94661194,13.4874118 3.491218,13.4867375 L0.401044841,13.4867375 L0.340054582,13.5946235 L3.491218,13.5946221 C3.94661194,13.5952964 4.3681224,13.3539046 4.59581937,12.9608 L8.72282695,5.79995865 C8.83938611,5.59497788 8.89563268,5.36100312 8.88546764,5.12567981 C8.87665794,5.32459207 8.82108903,5.51878437 8.72282695,5.69207404" id="Fill-35"></path>
                    </g>
                </g>
                <g id="Group-39" mask="url(#mask-2)" fill="#FFFFFF">
                    <g transform="translate(10.165043, 3.371394)">
                        <path d="M6.14083819,0.217132091 L8.6956524,4.64714411 C8.79526982,4.82245661 8.85083873,5.01934603 8.85829309,5.22028113 C8.86845813,4.98495781 8.81221156,4.75098305 8.6956524,4.54600228 L6.14083819,0.109247476 L2.29167513,0.109247476 L2.35266539,0.217132091" id="Fill-37"></path>
                        <polygon id="Fill-38" points="2.29160736 10.3313148 5.27335339 5.16633882 5.21236313 5.16633882 2.29160736 10.2234302 0.339919048 13.5948244 0.400909307 13.5948244"></polygon>
                    </g>
                </g>
            </g>
            <g id="Group-43">
                <mask id="mask-4" fill="white">
                    <use xlink:href="#path-3"></use>
                </mask>
                <g id="Clip-42"></g>
                <path d="M5.37226404,0.108640625 C4.91940887,0.108640625 4.50024828,0.350706731 4.2731468,0.743137019 L0.16982069,7.91072115 C-0.05391133,8.30045433 -0.05391133,8.78054087 0.16982069,9.1716226 L4.2731468,16.3317897 C4.50024828,16.7248942 4.91940887,16.9669603 5.37226404,16.9662861 L13.580264,16.9662861 C14.0331192,16.9669603 14.4516059,16.7248942 14.6787074,16.3317897 L18.7827074,9.1716226 C19.0064394,8.78054087 19.0064394,8.30045433 18.7827074,7.91072115 L16.2151803,3.48070913 L14.6787074,0.743137019 C14.4516059,0.350706731 14.0331192,0.108640625 13.580264,0.108640625 L5.37226404,0.108640625 Z" id="Fill-41" mask="url(#mask-4)"></path>
            </g>
        </g>
    </g>
</svg>