<?xml version="1.0" encoding="UTF-8"?>
<svg width="102px" height="25px" viewBox="0 0 102 25" version="1.1" xmlns="http://www.w3.org/2000/svg" xmlns:xlink="http://www.w3.org/1999/xlink">
    <!-- Generator: Sketch 48.1 (47250) - http://www.bohemiancoding.com/sketch -->
    <title>logo</title>
    <desc>Created with Sketch.</desc>
    <defs></defs>
    <g id="Desktop-HD" stroke="none" stroke-width="1" fill="none" fill-rule="evenodd" transform="translate(-245.000000, -22.000000)">
        <g id="logo" transform="translate(245.000000, 22.000000)" fill="#191919">
            <path d="M1,14.5366689 L3.4541052,14.5366689 C3.67180917,14.5366689 3.85982341,14.5860304 4.01815357,14.6847549 C4.17648373,14.7834793 4.2721401,14.9118192 4.30512555,15.0697784 L5.33426644,19.6604433 C5.41343152,20.0092697 5.48599842,20.3482186 5.55196932,20.6773002 C5.61794022,21.0063818 5.67731314,21.3321676 5.73008986,21.6546676 C5.82244912,21.3321676 5.91975474,21.0080271 6.02200963,20.6822364 C6.12426452,20.3564457 6.22486864,20.0158513 6.32382499,19.6604433 L7.6102511,15.059906 C7.64983364,14.9085285 7.74549001,14.781834 7.89722308,14.6798187 C8.04895615,14.5778034 8.22377641,14.5267965 8.42168911,14.5267965 L9.7872799,14.5267965 C10.0049839,14.5267965 10.1913489,14.5778034 10.3463805,14.6798187 C10.5014121,14.781834 10.5987177,14.9085285 10.6383003,15.059906 L11.8653529,19.6604433 C11.9577121,20.0092697 12.0517192,20.3482186 12.147377,20.6773002 C12.2430348,21.0063818 12.3337435,21.3387492 12.4195056,21.6744124 C12.4722824,21.3453308 12.536603,21.0178995 12.6124696,20.6921088 C12.6883361,20.366318 12.7691492,20.022433 12.8549114,19.6604433 L13.9434258,15.0697784 C13.9764113,14.9118192 14.0704184,14.7834793 14.22545,14.6847549 C14.3804816,14.5860304 14.5569511,14.5366689 14.7548638,14.5366689 L17.090222,14.5366689 L13.9038435,24.7743452 L11.4101559,24.7743452 C11.2782141,24.7743452 11.1660653,24.734856 11.073706,24.6558764 C10.9813468,24.5768969 10.9087799,24.4452662 10.8560031,24.2609805 L9.39145649,19.156951 C9.32548559,18.9265939 9.26281417,18.699531 9.20344036,18.4757555 C9.14406655,18.2519801 9.09129062,18.028208 9.04511099,17.8044325 C8.99893136,18.0347896 8.94780468,18.2634979 8.89172942,18.4905641 C8.83565415,18.7176304 8.77133349,18.9463387 8.6987655,19.1766958 L7.21442768,24.2609805 C7.11547133,24.6032254 6.89777063,24.7743452 6.56131904,24.7743452 L4.18637852,24.7743452 L1,14.5366689 Z M21.3029141,14.5366689 L21.3029141,24.7743452 L18.2352826,24.7743452 L18.2352826,14.5366689 L21.3029141,14.5366689 Z M21.6591552,11.732908 C21.6591552,11.9764283 21.6096777,12.2051366 21.5107214,12.4190396 C21.411765,12.6329426 21.2765267,12.8205163 21.1050024,12.9817663 C20.933478,13.1430163 20.7339191,13.2713561 20.5063195,13.3667898 C20.2787199,13.4622234 20.0362804,13.5099396 19.7789939,13.5099396 C19.5283045,13.5099396 19.2941113,13.4622234 19.0764074,13.3667898 C18.8587034,13.2713561 18.6657414,13.1430163 18.4975156,12.9817663 C18.3292898,12.8205163 18.19735,12.6329426 18.1016922,12.4190396 C18.0060344,12.2051366 17.9582062,11.9764283 17.9582062,11.732908 C17.9582062,11.482806 18.0060344,11.2491616 18.1016922,11.0319678 C18.19735,10.8147739 18.3292898,10.6239095 18.4975156,10.4593687 C18.6657414,10.2948279 18.8587034,10.166488 19.0764074,10.0743452 C19.2941113,9.98220236 19.5283045,9.93613163 19.7789939,9.93613163 C20.0362804,9.93613163 20.2787199,9.98220236 20.5063195,10.0743452 C20.7339191,10.166488 20.933478,10.2948279 21.1050024,10.4593687 C21.2765267,10.6239095 21.411765,10.8147739 21.5107214,11.0319678 C21.6096777,11.2491616 21.6591552,11.482806 21.6591552,11.732908 Z M27.2374381,24.9323036 C26.7492534,24.9323036 26.3187997,24.8615521 25.9460642,24.720047 C25.5733286,24.5785419 25.2599715,24.3778052 25.0059835,24.1178308 C24.7519956,23.8578563 24.5590336,23.5435881 24.4270918,23.1750168 C24.29515,22.8064454 24.2291801,22.3950997 24.2291801,21.9409671 L24.2291801,16.649362 L23.3583686,16.649362 C23.2000384,16.649362 23.0648001,16.5983551 22.9526496,16.4963398 C22.840499,16.3943245 22.7844246,16.2445947 22.7844246,16.0471457 L22.7844246,14.8525856 L24.4171962,14.5366689 L25.0208269,12.0389523 C25.099992,11.723034 25.3242897,11.5650772 25.6937267,11.5650772 L27.2968116,11.5650772 L27.2968116,14.5564137 L29.7904991,14.5564137 L29.7904991,16.649362 L27.2968116,16.649362 L27.2968116,21.7336467 C27.2968116,21.9705855 27.3545352,22.1663861 27.4699843,22.3210544 C27.5854334,22.4757227 27.7520074,22.5530557 27.9697114,22.5530557 C28.0818619,22.5530557 28.175869,22.5415381 28.2517356,22.5185024 C28.3276021,22.4954666 28.393572,22.4691405 28.4496473,22.4395232 C28.5057226,22.4099058 28.5584985,22.3835797 28.6079767,22.360544 C28.6574548,22.3375083 28.7151785,22.3259906 28.7811494,22.3259906 C28.8735087,22.3259906 28.9477248,22.3473806 29.0038001,22.3901612 C29.0598753,22.4329418 29.117599,22.5004025 29.1769728,22.5925453 L30.1071579,24.0437878 C29.7113325,24.3399612 29.2660356,24.5620879 28.7712538,24.7101746 C28.2764721,24.8582613 27.7652053,24.9323036 27.2374381,24.9323036 Z M31.4105478,24.7743452 L31.4105478,9.99536602 L34.4781793,9.99536602 L34.4781793,15.4350571 C34.8476164,15.1191388 35.2483836,14.8641044 35.680493,14.6699463 C36.1126024,14.4757881 36.6288169,14.3787105 37.2291521,14.3787105 C37.7899047,14.3787105 38.2863283,14.4757881 38.7184377,14.6699463 C39.1505471,14.8641044 39.5150308,15.1339472 39.8118999,15.4794829 C40.1087689,15.8250185 40.3330666,16.2363643 40.4847997,16.7135326 C40.6365328,17.1907008 40.7123982,17.7089965 40.7123982,18.2684352 L40.7123982,24.7743452 L37.6447667,24.7743452 L37.6447667,18.2684352 C37.6447667,17.7682312 37.5293193,17.3782754 37.2984212,17.0985561 C37.067523,16.8188367 36.727778,16.6789792 36.2791759,16.6789792 C35.9427243,16.6789792 35.6260687,16.751376 35.3291997,16.8961719 C35.0323306,17.0409678 34.74866,17.235123 34.4781793,17.4786434 L34.4781793,24.7743452 L31.4105478,24.7743452 Z M57.7243233,21.3331095 C58.3840323,21.3331095 58.9683372,21.2766963 59.4772555,21.1638684 C59.9861739,21.0510404 60.4668118,20.9006054 60.9191837,20.7125588 L60.9191837,17.5957018 L58.8835204,17.5957018 C58.5819392,17.5957018 58.3463323,17.5157832 58.1766929,17.3559436 C58.0070534,17.196104 57.922235,16.9939569 57.922235,16.7494963 L57.922235,14.1262592 L65.2449682,14.1262592 L65.2449682,22.7998657 C64.717201,23.1853612 64.1682371,23.5167884 63.5980601,23.7941572 C63.027883,24.0715259 62.4200174,24.299529 61.774445,24.4781733 C61.1288727,24.6568175 60.4409007,24.7884482 59.7105086,24.8730692 C58.9801165,24.9576901 58.1955458,25 57.3567729,25 C55.8488667,25 54.4540743,24.7343881 53.1723539,24.2031565 C51.8906336,23.6719248 50.7809255,22.938554 49.8431963,22.0030222 C48.905467,21.0674903 48.1703738,19.9580319 47.6378944,18.6746138 C47.1054149,17.3911957 46.8391792,15.9973212 46.8391792,14.4929483 C46.8391792,12.9603684 47.0936346,11.5523906 47.602553,10.2689725 C48.1114713,8.98555436 48.8394964,7.87844656 49.7866501,6.94761585 C50.7338037,6.01678514 51.8788528,5.29281655 53.2218319,4.77568838 C54.5648109,4.25856021 56.0656264,4 57.7243233,4 C58.581945,4 59.3877203,4.07051642 60.1416734,4.21155138 C60.8956266,4.35258633 61.5906667,4.54533122 62.2268147,4.78979181 C62.8629626,5.0342524 63.4449115,5.32572027 63.9726787,5.66420416 C64.5004459,6.00268806 64.9716595,6.36937345 65.3863337,6.76427132 L64.0009518,8.86568167 C63.86901,9.0631306 63.7111534,9.21826673 63.5273773,9.33109469 C63.3436012,9.44392266 63.1433354,9.5003358 62.9265739,9.5003358 C62.6438415,9.5003358 62.351689,9.4063139 62.0501078,9.21826729 C61.6731312,8.99261136 61.3173649,8.79751593 60.9827982,8.63297515 C60.6482315,8.46843437 60.3066016,8.33445317 59.9578983,8.23102754 C59.6091949,8.1276019 59.2416483,8.05238439 58.8552473,8.00537273 C58.4688463,7.95836108 58.0353298,7.93485561 57.5546847,7.93485561 C56.6593653,7.93485561 55.85359,8.09234228 55.1373345,8.40732035 C54.421079,8.72229842 53.8108573,9.16655187 53.3066512,9.74009402 C52.802445,10.3136362 52.4136938,11.0023466 52.1403857,11.8062458 C51.8670777,12.6101451 51.7304258,13.5057036 51.7304258,14.4929483 C51.7304258,15.5836186 51.8812141,16.5520441 52.1827954,17.3982539 C52.4843767,18.2444636 52.9014007,18.95903 53.4338801,19.5419745 C53.9663595,20.124919 54.5977858,20.5691724 55.3281779,20.8747482 C56.05857,21.1803239 56.8572772,21.3331095 57.7243233,21.3331095 Z M81.8554153,19.4573539 C81.9685082,19.4573539 82.0815995,19.4785089 82.1946925,19.5208193 C82.3077855,19.5631298 82.4161646,19.6359968 82.5198332,19.7394224 L84.414131,21.7280054 C83.5847825,22.8092734 82.5457564,23.6249133 81.2970215,24.1749496 C80.0482866,24.724986 78.5710319,25 76.8652129,25 C75.3007601,25 73.8988995,24.7343881 72.6595891,24.2031565 C71.4202786,23.6719248 70.3694722,22.938554 69.5071383,22.0030222 C68.6448044,21.0674903 67.9827492,19.9580319 67.5209529,18.6746138 C67.0591566,17.3911957 66.8282619,15.9973212 66.8282619,14.4929483 C66.8282619,12.9603684 67.0921415,11.5523906 67.6199087,10.2689725 C68.1476759,8.98555436 68.8851253,7.87844656 69.8322789,6.94761585 C70.7794326,6.01678514 71.9127014,5.29281655 73.2321194,4.77568838 C74.5515374,4.25856021 76.0075875,4 77.6003135,4 C78.3731155,4 79.1011406,4.06816587 79.7844106,4.20449966 C80.4676806,4.34083346 81.1061751,4.52887724 81.6999132,4.76863667 C82.2936513,5.00839609 82.8402591,5.29516287 83.3397531,5.6289456 C83.8392471,5.96272833 84.2821879,6.33176426 84.6685889,6.73606447 L83.0570221,8.89388852 C82.9533535,9.02552114 82.830838,9.14539906 82.6894718,9.25352586 C82.5481056,9.36165266 82.3501958,9.41571525 82.0957366,9.41571525 C81.9260972,9.41571525 81.7658845,9.37810649 81.6150939,9.30288784 C81.4643033,9.2276692 81.3040906,9.13599785 81.1344512,9.02787105 C80.9648117,8.91974425 80.7786823,8.80221689 80.5760574,8.67528543 C80.3734325,8.54835397 80.1331136,8.4308266 79.8550934,8.3226998 C79.5770731,8.214573 79.2519357,8.12290165 78.8796714,8.04768301 C78.507407,7.97246437 78.0715344,7.93485561 77.5720404,7.93485561 C76.7049943,7.93485561 75.9133554,8.08764119 75.1970999,8.39321692 C74.4808444,8.69879266 73.8659106,9.13599447 73.35228,9.70483546 C72.8386495,10.2736765 72.4381179,10.9623868 72.1506732,11.7709872 C71.8632286,12.5795877 71.7195084,13.4868989 71.7195084,14.4929483 C71.7195084,15.5460093 71.8632286,16.4815271 72.1506732,17.2995299 C72.4381179,18.1175326 72.8292252,18.806243 73.3240069,19.3656817 C73.8187887,19.9251203 74.3960254,20.3505694 75.0557344,20.6420416 C75.7154434,20.9335139 76.4222639,21.0792478 77.176217,21.0792478 C77.6097401,21.0792478 78.0055595,21.0580929 78.3636873,21.0157824 C78.721815,20.9734719 79.0540206,20.9006049 79.3603141,20.7971793 C79.6666075,20.6937537 79.95876,20.5597725 80.2367802,20.3952317 C80.5148004,20.2306909 80.7951726,20.0261933 81.077905,19.7817327 C81.190998,19.6877094 81.3135135,19.6101413 81.4454553,19.5490262 C81.5773971,19.487911 81.7140491,19.4573539 81.8554153,19.4573539 Z M91.2279484,17.9059772 L91.2279484,24.7743452 L86.4497942,24.7743452 L86.4497942,4.2256548 L93.7159813,4.2256548 C95.1673411,4.2256548 96.4137012,4.39724476 97.455099,4.74042982 C98.4964967,5.08361488 99.3541056,5.5560749 100.027951,6.15782404 C100.701797,6.75957319 101.198927,7.46943849 101.519357,8.28744124 C101.839787,9.10544398 102,9.98924979 102,10.9388852 C102,11.9637392 101.835075,12.9039581 101.505221,13.7595702 C101.175366,14.6151822 100.671168,15.348553 99.9926098,15.9597045 C99.314052,16.570856 98.4540871,17.0480171 97.4126893,17.3912021 C96.3712915,17.7343872 95.1390679,17.9059772 93.7159813,17.9059772 L91.2279484,17.9059772 Z M91.2279484,14.3096038 L93.7159813,14.3096038 C94.960004,14.3096038 95.8553099,14.0134348 96.4019259,13.421088 C96.948542,12.8287412 97.2218459,12.0013485 97.2218459,10.9388852 C97.2218459,10.4687686 97.1511638,10.040969 97.0097976,9.65547347 C96.8684314,9.26997792 96.6540292,8.93855075 96.3665846,8.661182 C96.0791399,8.38381325 95.7163054,8.16991345 95.2780701,8.01947616 C94.8398349,7.86903887 94.3191438,7.79382136 93.7159813,7.79382136 L91.2279484,7.79382136 L91.2279484,14.3096038 Z" id="with-GCP"></path>
            <rect id="Rectangle-4" x="0" y="0" width="41" height="4"></rect>
        </g>
    </g>
</svg>