<svg width="414" height="394" viewBox="0 0 414 394" version="1.1" xmlns="http://www.w3.org/2000/svg" xmlns:xlink="http://www.w3.org/1999/xlink">
<g id="Canvas" transform="translate(72 -1605)">
<g id="part2">
<use xlink:href="#path0_fill" transform="translate(-71.5 1605.5)" fill="#FFCC40" fill-opacity="0.25"/>
</g>
</g>
<defs>
<path id="path0_fill" fill-rule="evenodd" d="M 58.5837 9.9746e-07C 59.1222 -0.000618533 59.6196 0.287398 59.8872 0.754658L 123.686 112.177L 219.624 278.573L 411.5 278.573C 412.036 278.573 412.531 278.859 412.799 279.323C 413.067 279.787 413.067 280.358 412.799 280.823L 348.554 392.249C 348.286 392.714 347.791 393 347.255 393L 179.274 393C 163.74 393.013 149.382 384.744 141.611 371.305L 141.608 371.301L 5.75232 134.403C -1.91689 121.033 -1.91744 104.609 5.75067 91.2377C 5.75122 91.2368 5.75177 91.2358 5.75232 91.2349L 57.282 0.757655C 57.5485 0.289781 58.0453 0.000620647 58.5837 9.9746e-07ZM 58.589 4.52483L 8.3569 92.7235L 8.35462 92.7275C 1.21513 105.174 1.21513 120.464 8.35462 132.911L 144.208 369.804C 144.208 369.804 144.209 369.805 144.209 369.805C 151.443 382.314 164.809 390.013 179.272 390L 346.388 390L 408.904 281.573L 218.758 281.573C 218.222 281.573 217.726 281.287 217.458 280.823L 121.085 113.672L 58.589 4.52483Z"/>
</defs>
</svg>
