<svg width="407" height="238" viewBox="0 0 407 238" version="1.1" xmlns="http://www.w3.org/2000/svg" xmlns:xlink="http://www.w3.org/1999/xlink">
<g id="Canvas" transform="translate(-145 -1005)">
<g id="part1">
<use xlink:href="#path0_fill" transform="translate(145.5 1005.5)" fill="#4284F3" fill-opacity="0.253623"/>
</g>
</g>
<defs>
<path id="path0_fill" fill-rule="evenodd" d="M 102.901 3C 90.833 2.99476 79.6811 9.41689 73.6514 19.8502L 3.23093 141.904L 55.2959 232.491L 134.784 94.3552C 135.051 93.89 135.547 93.6033 136.084 93.6033L 401.936 93.6033L 360.467 19.8506C 360.466 19.8481 360.464 19.8455 360.463 19.8429C 354.426 9.41364 343.277 2.99476 331.212 3L 102.901 3ZM 102.902 3.22402e-06C 89.7647 -0.00547814 77.6212 6.98573 71.054 18.349L 0.200745 141.153C -0.0664693 141.616 -0.0669439 142.186 0.199499 142.65L 53.9946 236.247C 54.2621 236.713 54.758 237 55.2948 237C 55.8316 237 56.3275 236.713 56.5953 236.248L 136.951 96.6033L 404.5 96.6033C 405.033 96.6033 405.526 96.3206 405.795 95.8607C 406.064 95.4007 406.069 94.8326 405.807 94.3681L 363.073 18.3644L 363.064 18.3485C 356.491 6.98578 344.348 -0.00548088 331.211 3.22402e-06C 331.212 3.22402e-06 331.211 3.22402e-06 331.211 3.22402e-06L 102.902 3.22402e-06Z"/>
</defs>
</svg>
