<svg width="346" height="547" viewBox="0 0 346 547" version="1.1" xmlns="http://www.w3.org/2000/svg" xmlns:xlink="http://www.w3.org/1999/xlink">
<g id="Canvas" transform="translate(114 -2473)">
<g id="part3">
<use xlink:href="#path0_stroke" transform="translate(-112 2475)" fill="#DA4437" fill-opacity="0.25"/>
</g>
</g>
<defs>
<path id="path0_stroke" d="M 335.848 228.872L 337.15 229.618C 337.156 229.608 337.162 229.597 337.167 229.586L 335.848 228.872ZM 170.503 517.482L 171.802 518.232L 171.804 518.228L 170.503 517.482ZM 126.246 543L 126.248 541.5L 126.246 541.5L 126.246 543ZM 0 543L -1.2998 542.251C -1.56714 542.715 -1.5667 543.287 -1.29865 543.751C -1.03061 544.214 -0.535625 544.5 2.88614e-16 544.5L 0 543ZM 78.1905 407.25L 79.4903 407.999L 79.4911 407.997L 78.1905 407.25ZM 195.21 203.625L 196.511 204.372C 196.777 203.91 196.777 203.34 196.511 202.878L 195.21 203.625ZM 78.1905 0L 78.1905 -1.5C 77.6552 -1.5 77.1604 -1.21467 76.8922 -0.751301C 76.6241 -0.287933 76.6232 0.283223 76.89 0.747396L 78.1905 0ZM 232.402 0L 233.703 -0.746557C 233.436 -1.2126 232.939 -1.5 232.402 -1.5L 232.402 0ZM 334.759 178.377L 333.458 179.124C 333.463 179.132 333.468 179.14 333.472 179.148L 334.759 178.377ZM 334.547 228.127L 169.201 516.737L 171.804 518.228L 337.15 229.618L 334.547 228.127ZM 169.204 516.732C 160.349 532.074 143.973 541.523 126.248 541.5L 126.244 544.5C 145.043 544.524 162.411 534.503 171.802 518.232L 169.204 516.732ZM 126.246 541.5L 0 541.5L 0 544.5L 126.246 544.5L 126.246 541.5ZM 1.2998 543.749L 79.4903 407.999L 76.8907 406.501L -1.2998 542.251L 1.2998 543.749ZM 79.4911 407.997L 196.511 204.372L 193.91 202.878L 76.89 406.503L 79.4911 407.997ZM 196.511 202.878L 79.4911 -0.747396L 76.89 0.747396L 193.91 204.372L 196.511 202.878ZM 78.1905 1.5L 232.402 1.5L 232.402 -1.5L 78.1905 -1.5L 78.1905 1.5ZM 231.101 0.746557L 333.458 179.124L 336.06 177.631L 233.703 -0.746557L 231.101 0.746557ZM 333.472 179.148C 342.451 194.15 342.852 212.778 334.529 228.159L 337.167 229.586C 345.994 213.275 345.569 193.519 336.046 177.607L 333.472 179.148Z"/>
</defs>
</svg>
